# Blender v2.81 (sub 16) OBJ File: ''
# www.blender.org
mtllib grass.mtl
o DetailMesh_Grass
v -0.015889 0.198190 0.056054
v -0.084440 0.198190 0.004332
v 0.017664 -0.036850 -0.049702
v 0.038806 -0.036850 -0.021870
v -0.115883 0.198190 -0.075578
v -0.003479 -0.036850 -0.077534
v 0.017664 -0.036850 -0.049702
v -0.084440 0.198190 0.004332
v -0.047332 0.198190 -0.023857
v 0.017664 -0.036850 -0.049702
v -0.003479 -0.036850 -0.077534
v -0.115883 0.198190 -0.075578
v 0.017664 -0.036850 -0.049702
v -0.047332 0.198190 -0.023857
v -0.015889 0.198190 0.056054
v 0.038806 -0.036850 -0.021870
v -0.067756 0.773474 -0.025223
v -0.047332 0.198190 -0.023857
v -0.115883 0.198190 -0.075578
v -0.156116 0.773474 -0.103021
v -0.047332 0.198190 -0.023857
v -0.067756 0.773474 -0.025223
v -0.016504 0.773474 0.080765
v -0.015889 0.198190 0.056054
v -0.016504 0.773474 0.080765
v -0.104864 0.773474 0.002966
v -0.084440 0.198190 0.004332
v -0.015889 0.198190 0.056054
v -0.156116 0.773474 -0.103021
v -0.115883 0.198190 -0.075578
v -0.084440 0.198190 0.004332
v -0.104864 0.773474 0.002966
v -0.073010 0.196523 0.209299
v -0.022278 0.199110 0.140061
v -0.034707 -0.032357 0.214547
v -0.062485 -0.029165 0.235519
v 0.056737 0.207271 0.107437
v -0.006929 -0.035549 0.193575
v -0.034707 -0.032357 0.214547
v -0.022278 0.199110 0.140061
v 0.006005 0.204683 0.176675
v -0.034707 -0.032357 0.214547
v -0.006929 -0.035549 0.193575
v 0.056737 0.207271 0.107437
v -0.034707 -0.032357 0.214547
v 0.006005 0.204683 0.176675
v -0.073010 0.196523 0.209299
v -0.062485 -0.029165 0.235519
v -0.110322 0.770959 0.259049
v 0.006005 0.204683 0.176675
v 0.056737 0.207271 0.107437
v 0.004443 0.838769 0.162728
v 0.006005 0.204683 0.176675
v -0.110322 0.770959 0.259049
v -0.252509 0.714565 0.319463
v -0.073010 0.196523 0.209299
v -0.252509 0.714565 0.319463
v -0.137744 0.782376 0.223142
v -0.022278 0.199110 0.140061
v -0.073010 0.196523 0.209299
v 0.004443 0.838769 0.162728
v 0.056737 0.207271 0.107437
v -0.022278 0.199110 0.140061
v -0.137744 0.782376 0.223142
v 0.144555 0.114740 0.061185
v 0.108770 0.121462 0.138957
v 0.115595 -0.034918 0.133964
v 0.138134 -0.033580 0.107284
v 0.043452 0.149100 0.187372
v 0.093057 -0.036256 0.160645
v 0.115595 -0.034918 0.133964
v 0.108770 0.121462 0.138957
v 0.079237 0.142378 0.109599
v 0.115595 -0.034918 0.133964
v 0.093057 -0.036256 0.160645
v 0.043452 0.149100 0.187372
v 0.115595 -0.034918 0.133964
v 0.079237 0.142378 0.109599
v 0.144555 0.114740 0.061185
v 0.138134 -0.033580 0.107284
v 0.126322 0.430431 0.100591
v 0.079237 0.142378 0.109599
v 0.043452 0.149100 0.187372
v 0.055920 0.407878 0.192215
v 0.079237 0.142378 0.109599
v 0.126322 0.430431 0.100591
v 0.226316 0.432372 0.038481
v 0.144555 0.114740 0.061185
v 0.226316 0.432372 0.038481
v 0.155914 0.409819 0.130105
v 0.108770 0.121462 0.138957
v 0.144555 0.114740 0.061185
v 0.055920 0.407878 0.192215
v 0.043452 0.149100 0.187372
v 0.108770 0.121462 0.138957
v 0.155914 0.409819 0.130105
v -0.123057 0.244231 -0.227810
v -0.140500 0.239529 -0.143858
v -0.210407 -0.036850 -0.202258
v -0.194059 -0.036850 -0.233150
v -0.197711 0.224108 -0.081703
v -0.226755 -0.036850 -0.171365
v -0.210407 -0.036850 -0.202258
v -0.140500 0.239529 -0.143858
v -0.180269 0.228810 -0.165655
v -0.210407 -0.036850 -0.202258
v -0.226755 -0.036850 -0.171365
v -0.197711 0.224108 -0.081703
v -0.210407 -0.036850 -0.202258
v -0.180269 0.228810 -0.165655
v -0.123057 0.244231 -0.227810
v -0.194059 -0.036850 -0.233150
v -0.267440 0.531135 -0.103563
v -0.180269 0.228810 -0.165655
v -0.197711 0.224108 -0.081703
v -0.299673 0.522447 0.009334
v -0.180269 0.228810 -0.165655
v -0.267440 0.531135 -0.103563
v -0.195439 0.550542 -0.194663
v -0.123057 0.244231 -0.227810
v -0.195439 0.550542 -0.194663
v -0.227671 0.541854 -0.081766
v -0.140500 0.239529 -0.143858
v -0.123057 0.244231 -0.227810
v -0.299673 0.522447 0.009334
v -0.197711 0.224108 -0.081703
v -0.140500 0.239529 -0.143858
v -0.227671 0.541854 -0.081766
v -0.038693 0.199422 -0.181485
v -0.078327 0.192145 -0.257317
v -0.013483 -0.034918 -0.262258
v -0.006194 -0.033579 -0.228101
v -0.073169 0.193092 -0.343030
v -0.020773 -0.036256 -0.296414
v -0.013483 -0.034918 -0.262258
v -0.078327 0.192145 -0.257317
v -0.033535 0.200370 -0.267198
v -0.013483 -0.034918 -0.262258
v -0.020773 -0.036256 -0.296414
v -0.073169 0.193092 -0.343030
v -0.013483 -0.034918 -0.262258
v -0.033535 0.200370 -0.267198
v -0.038693 0.199422 -0.181485
v -0.006194 -0.033579 -0.228101
v 0.013449 0.543384 -0.313138
v -0.033535 0.200370 -0.267198
v -0.073169 0.193092 -0.343030
v -0.024268 0.495933 -0.414064
v -0.033535 0.200370 -0.267198
v 0.013449 0.543384 -0.313138
v 0.006288 0.582913 -0.202475
v -0.038693 0.199422 -0.181485
v 0.006288 0.582913 -0.202475
v -0.031429 0.535462 -0.303401
v -0.078327 0.192145 -0.257317
v -0.038693 0.199422 -0.181485
v -0.024268 0.495933 -0.414064
v -0.073169 0.193092 -0.343030
v -0.078327 0.192145 -0.257317
v -0.031429 0.535462 -0.303401
v -0.067756 0.773474 -0.025223
v -0.156116 0.773474 -0.103021
v 0.056264 1.265454 -0.054298
v -0.067756 0.773474 -0.025223
v 0.056264 1.265454 -0.054298
v -0.016504 0.773474 0.080765
v -0.016504 0.773474 0.080765
v 0.056264 1.265454 -0.054298
v -0.104864 0.773474 0.002966
v 0.056264 1.265454 -0.054298
v -0.156116 0.773474 -0.103021
v -0.104864 0.773474 0.002966
v -0.110322 0.770959 0.259049
v 0.004443 0.838769 0.162728
v -0.164688 0.982578 0.337617
v -0.110322 0.770959 0.259049
v -0.164688 0.982578 0.337617
v -0.252509 0.714565 0.319463
v -0.252509 0.714565 0.319463
v -0.164688 0.982578 0.337617
v -0.137744 0.782376 0.223142
v -0.164688 0.982578 0.337617
v 0.004443 0.838769 0.162728
v -0.137744 0.782376 0.223142
v 0.126322 0.430431 0.100591
v 0.055920 0.407878 0.192215
v 0.253001 0.858261 0.309160
v 0.126322 0.430431 0.100591
v 0.253001 0.858261 0.309160
v 0.226316 0.432372 0.038481
v 0.226316 0.432372 0.038481
v 0.253001 0.858261 0.309160
v 0.155914 0.409819 0.130105
v 0.253001 0.858261 0.309160
v 0.055920 0.407878 0.192215
v 0.155914 0.409819 0.130105
v -0.267440 0.531135 -0.103563
v -0.299673 0.522447 0.009334
v -0.468316 0.835395 -0.235522
v -0.267440 0.531135 -0.103563
v -0.468316 0.835395 -0.235522
v -0.195439 0.550542 -0.194663
v -0.195439 0.550542 -0.194663
v -0.468316 0.835395 -0.235522
v -0.227671 0.541854 -0.081766
v -0.468316 0.835395 -0.235522
v -0.299673 0.522447 0.009334
v -0.227671 0.541854 -0.081766
v 0.013449 0.543384 -0.313138
v -0.024268 0.495933 -0.414064
v -0.124410 0.987388 -0.475752
v 0.013449 0.543384 -0.313138
v -0.124410 0.987388 -0.475752
v 0.006288 0.582913 -0.202475
v 0.006288 0.582913 -0.202475
v -0.124410 0.987388 -0.475752
v -0.031429 0.535462 -0.303401
v -0.124410 0.987388 -0.475752
v -0.024268 0.495933 -0.414064
v -0.031429 0.535462 -0.303401
vt 0.086852 0.232403
vt 0.022936 -0.019300
vt 0.057887 -0.019300
vt -0.012016 -0.019300
vt 0.004200 0.241705
vt -0.078452 0.232403
vt 0.004200 0.228851
vt -0.012016 -0.015410
vt -0.078452 0.236278
vt 0.004200 0.228851
vt 0.057887 -0.015410
vt 0.022936 -0.015410
vt -0.009242 0.810958
vt -0.078452 0.236091
vt -0.124643 0.811583
vt -0.009242 0.810958
vt 0.086852 0.236091
vt 0.004200 0.235466
vt 0.106158 0.811583
vt 0.004200 0.236716
vt 0.086852 0.236091
vt -0.078452 0.236091
vt -0.009242 0.812208
vt -0.124643 0.811583
vt 0.038616 0.232177
vt 0.011477 0.001926
vt 0.046281 0.005130
vt -0.023327 -0.001278
vt -0.043829 0.238742
vt -0.126332 0.243025
vt -0.043847 0.240266
vt -0.023264 0.000237
vt -0.126389 0.244478
vt 0.011538 0.003454
vt 0.038563 0.233699
vt 0.046340 0.006672
vt 0.097910 0.807889
vt -0.124815 0.243849
vt -0.050822 0.875502
vt 0.097910 0.807889
vt 0.039496 0.233258
vt -0.044521 0.241586
vt 0.101288 0.818794
vt 0.039493 0.233249
vt 0.250025 0.751194
vt -0.124821 0.243831
vt 0.101288 0.818794
vt -0.050824 0.875491
vt -0.002903 0.159652
vt 0.040132 0.004828
vt 0.080426 0.154554
vt -0.029667 0.002382
vt -0.002903 0.159652
vt -0.081254 0.188970
vt 0.003329 0.188246
vt -0.029233 0.004928
vt -0.080368 0.191367
vt 0.005633 0.005848
vt 0.081241 0.156641
vt 0.040500 0.006767
vt -0.005543 0.172480
vt -0.080621 0.440705
vt 0.034010 0.461805
vt 0.034010 0.461805
vt 0.074828 0.146108
vt -0.005543 0.172480
vt 0.033891 0.445170
vt 0.074828 0.146094
vt 0.148523 0.466267
vt -0.085962 0.181900
vt 0.033891 0.445170
vt -0.080621 0.440692
vt -0.022591 0.289954
vt 0.034922 0.000392
vt 0.060687 0.288941
vt -0.103329 0.268369
vt 0.000000 0.000000
vt -0.022591 0.289954
vt -0.019701 0.268923
vt -0.034932 -0.000232
vt -0.102811 0.268526
vt -0.019701 0.268923
vt 0.034932 0.000232
vt 0.000000 0.000000
vt -0.113934 0.561786
vt -0.100191 0.247378
vt -0.228642 0.549355
vt -0.017981 0.255767
vt 0.000394 0.577842
vt 0.063850 0.267782
vt 0.000394 0.577842
vt -0.018360 0.259393
vt 0.063850 0.267782
vt -0.100191 0.247378
vt -0.114314 0.565411
vt -0.228642 0.549355
vt -0.004662 0.232953
vt 0.039540 -0.001385
vt 0.077973 0.235071
vt -0.030310 -0.004134
vt -0.004662 0.232953
vt -0.087203 0.228571
vt -0.004576 0.235029
vt -0.030392 -0.002060
vt -0.087124 0.230664
vt -0.004576 0.235029
vt 0.039459 0.000639
vt 0.004534 -0.000710
vt -0.004753 0.234798
vt -0.149263 0.531183
vt -0.044374 0.581796
vt -0.044374 0.581796
vt 0.079618 0.231464
vt -0.004753 0.234798
vt -0.040397 0.567105
vt 0.079617 0.231471
vt 0.064493 0.617715
vt -0.149261 0.531192
vt -0.000624 0.219819
vt -0.040397 0.567105
vt -0.009242 0.775537
vt -0.124643 0.769670
vt 0.042626 1.280961
vt -0.009242 0.775537
vt 0.042626 1.280961
vt 0.106158 0.769670
vt 0.106158 0.757543
vt 0.042626 1.268837
vt -0.009242 0.750695
vt 0.042626 1.268837
vt -0.124643 0.757543
vt -0.009242 0.750695
vt 0.098410 0.793105
vt -0.051092 0.857620
vt 0.188697 1.006725
vt 0.098410 0.793105
vt 0.188697 1.006725
vt 0.248816 0.730845
vt 0.247425 0.708430
vt 0.190079 0.984947
vt 0.097643 0.772293
vt 0.190079 0.984947
vt -0.051193 0.838214
vt 0.097643 0.772293
vt 0.034149 0.397359
vt -0.080536 0.383877
vt -0.025629 0.886101
vt 0.034149 0.397359
vt -0.025629 0.886101
vt 0.148558 0.411880
vt 0.148497 0.421591
vt -0.024350 0.896301
vt 0.033904 0.407356
vt -0.024350 0.896301
vt -0.080680 0.394270
vt 0.033904 0.407356
vt -0.113847 0.432723
vt -0.226153 0.404135
vt -0.112102 0.820322
vt -0.113847 0.432723
vt -0.112102 0.820322
vt 0.001750 0.440592
vt 0.001937 0.419996
vt -0.114730 0.798897
vt -0.109978 0.389524
vt -0.114730 0.798897
vt -0.225691 0.381858
vt -0.109978 0.389524
vt -0.038909 0.558466
vt -0.145692 0.514624
vt -0.228089 1.013065
vt -0.038909 0.558466
vt -0.228089 1.013065
vt 0.067396 0.603292
vt 0.066894 0.608848
vt -0.227314 1.019540
vt -0.039607 0.564325
vt -0.227314 1.019540
vt -0.146475 0.520857
vt -0.039607 0.564325
vt 0.004200 0.241705
vt 0.022936 -0.019300
vt 0.022936 -0.015410
vt 0.086852 0.236278
vt 0.004200 0.235466
vt 0.106158 0.811583
vt -0.009242 0.812208
vt 0.004200 0.236716
vt -0.043829 0.238742
vt 0.011477 0.001926
vt 0.011538 0.003454
vt -0.043847 0.240266
vt -0.044521 0.241586
vt 0.250029 0.751211
vt -0.040808 0.235491
vt -0.040808 0.235491
vt 0.005232 0.003605
vt 0.005232 0.003605
vt 0.005633 0.005848
vt 0.003329 0.188246
vt -0.085962 0.181910
vt 0.148523 0.466278
vt -0.005591 0.155530
vt -0.005591 0.155530
vt 0.000000 0.000000
vt -0.034922 -0.000392
vt 0.000000 0.000000
vt 0.061235 0.288864
vt -0.017981 0.255767
vt -0.113934 0.561786
vt -0.114314 0.565411
vt -0.018360 0.259393
vt 0.004615 -0.002759
vt 0.004615 -0.002759
vt 0.004534 -0.000710
vt 0.078057 0.237048
vt -0.084993 0.223142
vt 0.064492 0.617706
vt -0.000624 0.219819
vt -0.084994 0.223152
vn -0.5141 -0.3811 0.7684
vn -0.8030 -0.4038 0.4383
vn -0.7429 -0.3600 0.5644
vn -0.7438 -0.4334 0.5089
vn -0.8397 -0.4123 0.3534
vn -0.8790 -0.3956 0.2663
vn 0.5408 0.2463 -0.8043
vn 0.8194 0.3457 -0.4572
vn 0.5777 0.2827 -0.7657
vn 0.8738 0.3171 -0.3687
vn 0.7934 0.2862 -0.5372
vn 0.6393 0.2281 -0.7343
vn 0.6794 0.0187 -0.7336
vn 0.5741 0.0080 -0.8188
vn 0.6608 0.0104 -0.7505
vn 0.9032 0.0209 -0.4288
vn 0.9266 0.0306 -0.3748
vn 0.9447 0.0392 -0.3255
vn -0.6787 -0.0285 0.7339
vn -0.5749 -0.0255 0.8178
vn -0.6019 -0.0349 0.7978
vn -0.9266 -0.0334 0.3746
vn -0.9025 -0.0412 0.4286
vn -0.8852 -0.0463 0.4630
vn -0.8314 -0.1092 -0.5449
vn -0.4840 -0.1996 -0.8520
vn -0.6069 -0.1196 -0.7857
vn -0.5637 -0.2185 -0.7965
vn -0.3720 -0.2294 -0.8994
vn -0.2683 -0.2309 -0.9353
vn 0.8401 -0.0487 0.5403
vn 0.4839 0.1273 0.8658
vn 0.8067 -0.0019 0.5910
vn 0.7142 0.0365 0.6990
vn 0.3167 0.1170 0.9413
vn 0.6069 0.1196 0.7857
vn 0.5889 -0.0047 0.8082
vn 0.8706 0.0599 0.4884
vn 0.6474 -0.0131 0.7621
vn 0.4058 -0.0527 0.9124
vn 0.3893 -0.0543 0.9195
vn 0.3715 -0.0561 0.9268
vn -0.6448 -0.0532 -0.7625
vn -0.7799 -0.0715 -0.6218
vn -0.5528 -0.0415 -0.8323
vn -0.3893 0.0534 -0.9196
vn -0.4045 0.0470 -0.9133
vn -0.4128 0.0434 -0.9098
vn 0.8907 0.0772 0.4479
vn 0.8124 0.0349 0.5821
vn 0.9375 0.1101 0.3302
vn 0.7280 0.0217 0.6852
vn 0.6269 0.0445 0.7778
vn 0.5561 0.0586 0.8291
vn -0.9106 -0.2243 -0.3470
vn -0.6662 -0.1339 -0.7336
vn -0.8990 -0.1832 -0.3978
vn -0.7795 -0.2097 -0.5902
vn -0.6196 -0.2125 -0.7556
vn -0.7491 -0.1668 -0.6411
vn -0.8821 0.0676 -0.4661
vn -0.8219 0.1022 -0.5604
vn -0.7469 0.1369 -0.6508
vn -0.5347 0.0742 -0.8418
vn -0.5636 0.0702 -0.8231
vn -0.6035 0.0643 -0.7947
vn 0.8174 -0.1607 0.5532
vn 0.8776 -0.1408 0.4583
vn 0.7559 -0.1764 0.6305
vn 0.5647 -0.0628 0.8229
vn 0.5379 -0.0472 0.8417
vn 0.5056 -0.0287 0.8623
vn 0.9462 -0.2498 0.2057
vn 0.8659 -0.2977 0.4020
vn 0.9699 -0.2209 0.1020
vn 0.7104 -0.3021 0.6356
vn 0.8942 -0.2701 0.3570
vn 0.7362 -0.3130 0.6000
vn -0.9809 0.1382 -0.1365
vn -0.7812 0.2360 -0.5779
vn -0.9662 0.1732 -0.1910
vn -0.7557 0.1978 -0.6243
vn -0.8524 0.1699 -0.4946
vn -0.9407 0.1286 -0.3140
vn -0.9293 -0.2114 -0.3030
vn -0.9490 -0.2577 -0.1817
vn -0.9306 -0.2315 -0.2835
vn -0.7061 -0.0697 -0.7046
vn -0.7800 -0.1122 -0.6157
vn -0.7204 -0.0959 -0.6869
vn 0.9336 0.1935 0.3016
vn 0.9564 0.2272 0.1834
vn 0.9563 0.2032 0.2101
vn 0.7357 0.0695 0.6737
vn 0.7674 0.0725 0.6370
vn 0.7940 0.0750 0.6033
vn -0.8679 -0.2197 0.4456
vn -0.9280 -0.2623 0.2647
vn -0.8198 -0.1922 0.5395
vn -0.9510 -0.2665 0.1570
vn -0.9705 -0.2385 -0.0353
vn -0.9653 -0.2189 -0.1424
vn 0.8558 0.0704 -0.5125
vn 0.9842 0.1571 -0.0816
vn 0.8772 0.1052 -0.4685
vn 0.9919 0.1218 0.0353
vn 0.9836 0.0887 -0.1570
vn 0.9115 0.0383 -0.4095
vn 0.8886 -0.2262 -0.3991
vn 0.9377 -0.1778 -0.2986
vn 0.9694 -0.1329 -0.2062
vn 0.9888 -0.1126 0.0975
vn 0.9900 -0.1242 0.0675
vn 0.9899 -0.1383 0.0308
vn -0.9401 0.1341 0.3135
vn -0.8935 0.1701 0.4157
vn -0.9671 0.1049 0.2315
vn -0.9842 0.1266 -0.1235
vn -0.9898 0.1367 -0.0399
vn -0.9869 0.1205 -0.1069
vn 0.6466 -0.2064 -0.7344
vn 0.8728 -0.2450 -0.4221
vn -0.6323 0.2907 0.7181
vn -0.8509 0.3266 0.4115
vn 0.6734 -0.0990 0.7326
vn 0.4509 -0.2066 0.8684
vn -0.7084 0.2761 -0.6496
vn -0.4859 0.3837 -0.7853
vn -0.7572 0.4534 -0.4702
vn -0.4653 0.4954 -0.7336
vn 0.7783 -0.3708 0.5067
vn 0.4864 -0.4128 0.7701
vn -0.7498 -0.6081 -0.2609
vn -0.5527 -0.6108 -0.5670
vn 0.6817 0.6885 0.2476
vn 0.4934 0.6851 0.5359
vn 0.9059 0.1342 -0.4016
vn 0.9583 0.2832 -0.0392
vn -0.9277 -0.0497 0.3701
vn -0.9800 -0.1987 0.0076
vn -0.5502 -0.4067 0.7293
vn -0.5857 -0.4389 0.6814
vn 0.7655 0.2756 -0.5815
vn 0.9042 0.3290 -0.2723
vn 0.6022 0.0195 -0.7981
vn 0.8860 0.0144 -0.4634
vn -0.6607 -0.0217 0.7504
vn -0.9451 -0.0264 0.3257
vn -0.7953 -0.1466 -0.5882
vn -0.7651 -0.1899 -0.6153
vn 0.6041 0.0235 0.7966
vn 0.3729 0.0836 0.9241
vn 0.8027 0.0789 0.5911
vn 0.4157 -0.0516 0.9080
vn -0.8857 -0.0872 -0.4560
vn -0.3724 0.0604 -0.9261
vn 0.6102 -0.0458 0.7909
vn 0.8579 -0.0147 0.5137
vn -0.7360 -0.2380 -0.6337
vn -0.6407 -0.2320 -0.7319
vn -0.9516 0.0120 -0.3071
vn -0.5074 0.0778 -0.8582
vn 0.9364 -0.1135 0.3321
vn 0.6005 -0.0844 0.7951
vn 0.7075 -0.3377 0.6209
vn 0.8556 -0.2508 0.4528
vn -0.8721 0.1625 -0.4615
vn -0.7009 0.2096 -0.6818
vn -0.9500 -0.2307 -0.2103
vn -0.7714 -0.0931 -0.6295
vn 0.9354 0.2115 0.2833
vn 0.6956 0.0657 0.7154
vn -0.9527 -0.3040 0.0018
vn -0.8657 -0.2881 0.4095
vn 0.9743 0.0786 -0.2110
vn 0.9801 0.1383 0.1424
vn 0.8058 -0.2836 -0.5199
vn 0.9872 -0.1031 0.1217
vn -0.8290 0.2065 0.5197
vn -0.9876 0.1459 -0.0578
usemtl Default_Prototype
s 1
f 1/1/1 3/2/2 4/3/3
f 6/4/4 8/5/5 5/6/6
f 9/7/7 11/8/8 12/9/9
f 14/10/10 16/11/11 13/12/12
f 17/13/13 19/14/14 20/15/15
f 22/16/16 24/17/17 21/18/18
f 25/19/19 27/20/20 28/21/21
f 30/22/22 32/23/23 29/24/24
f 33/25/25 35/26/26 36/27/27
f 38/28/28 40/29/29 37/30/30
f 41/31/31 43/32/32 44/33/33
f 45/34/34 47/35/35 48/36/36
f 49/37/37 51/38/38 52/39/39
f 54/40/40 56/41/41 53/42/42
f 58/43/43 60/44/44 57/45/45
f 62/46/46 64/47/47 61/48/48
f 66/49/49 68/50/50 65/51/51
f 70/52/52 72/53/53 69/54/54
f 73/55/55 75/56/56 76/57/57
f 77/58/58 79/59/59 80/60/60
f 82/61/61 84/62/62 81/63/63
f 86/64/64 88/65/65 85/66/66
f 90/67/67 92/68/68 89/69/69
f 94/70/70 96/71/71 93/72/72
f 98/73/73 100/74/74 97/75/75
f 101/76/76 103/77/77 104/78/78
f 105/79/79 107/80/80 108/81/81
f 110/82/82 112/83/83 109/84/84
f 113/85/85 115/86/86 116/87/87
f 117/88/88 119/89/89 120/90/90
f 121/91/91 123/92/92 124/93/93
f 126/94/94 128/95/95 125/96/96
f 130/97/97 132/98/98 129/99/99
f 134/100/100 136/101/101 133/102/102
f 137/103/103 139/104/104 140/105/105
f 142/106/106 144/107/107 141/108/108
f 146/109/109 148/110/110 145/111/111
f 150/112/112 152/113/113 149/114/114
f 154/115/115 156/116/116 153/117/117
f 157/118/118 159/119/119 160/120/120
f 161/121/121 162/122/121 163/123/121
f 164/124/122 165/125/122 166/126/122
f 167/127/123 168/128/123 169/129/123
f 170/130/124 171/131/124 172/132/124
f 173/133/125 174/134/125 175/135/125
f 176/136/126 177/137/126 178/138/126
f 179/139/127 180/140/127 181/141/127
f 182/142/128 183/143/128 184/144/128
f 185/145/129 186/146/129 187/147/129
f 188/148/130 189/149/130 190/150/130
f 191/151/131 192/152/131 193/153/131
f 194/154/132 195/155/132 196/156/132
f 197/157/133 198/158/133 199/159/133
f 200/160/134 201/161/134 202/162/134
f 203/163/135 204/164/135 205/165/135
f 206/166/136 207/167/136 208/168/136
f 209/169/137 210/170/137 211/171/137
f 212/172/138 213/173/138 214/174/138
f 215/175/139 216/176/139 217/177/139
f 218/178/140 219/179/140 220/180/140
f 1/1/1 2/181/141 3/2/2
f 6/4/4 7/182/142 8/5/5
f 9/7/7 10/183/143 11/8/8
f 14/10/10 15/184/144 16/11/11
f 17/13/13 18/185/145 19/14/14
f 22/16/16 23/186/146 24/17/17
f 25/19/19 26/187/147 27/20/20
f 30/22/22 31/188/148 32/23/23
f 33/25/25 34/189/149 35/26/26
f 38/28/28 39/190/150 40/29/29
f 41/31/31 42/191/151 43/32/32
f 45/34/34 46/192/152 47/35/35
f 49/37/37 50/193/153 51/38/38
f 54/40/40 55/194/154 56/41/41
f 58/43/43 59/195/155 60/44/44
f 62/46/46 63/196/156 64/47/47
f 66/49/49 67/197/157 68/50/50
f 70/52/52 71/198/158 72/53/53
f 73/55/55 74/199/159 75/56/56
f 77/58/58 78/200/160 79/59/59
f 82/61/61 83/201/161 84/62/62
f 86/64/64 87/202/162 88/65/65
f 90/67/67 91/203/163 92/68/68
f 94/70/70 95/204/164 96/71/71
f 98/73/73 99/205/165 100/74/74
f 101/76/76 102/206/166 103/77/77
f 105/79/79 106/207/167 107/80/80
f 110/82/82 111/208/168 112/83/83
f 113/85/85 114/209/169 115/86/86
f 117/88/88 118/210/170 119/89/89
f 121/91/91 122/211/171 123/92/92
f 126/94/94 127/212/172 128/95/95
f 130/97/97 131/213/173 132/98/98
f 134/100/100 135/214/174 136/101/101
f 137/103/103 138/215/175 139/104/104
f 142/106/106 143/216/176 144/107/107
f 146/109/109 147/217/177 148/110/110
f 150/112/112 151/218/178 152/113/113
f 154/115/115 155/219/179 156/116/116
f 157/118/118 158/220/180 159/119/119
